<?xml version="1.0" standalone="no"?>
<svg xmlns="http://www.w3.org/2000/svg" version="1.1" width="486" height="486">
	<!-- Created with https://api.qrserver.com (QR Code API, see goQR.me/api for information) -->
	<title>QR Code</title>
	<desc>https://shems99.github.io/Questions/index.html</desc>
	<rect style="fill:rgb(255, 255, 255);fill-opacity:1" x="0" y="0" width="486" height="486" />
	<g id="elements">
		<path style="fill:#ff0066" d="M 120,120 l 6,0 0,6 -6,0 z" />
		<path style="fill:#ff0066" d="M 126,120 l 6,0 0,6 -6,0 z" />
		<path style="fill:#ff0066" d="M 132,120 l 6,0 0,6 -6,0 z" />
		<path style="fill:#ff0066" d="M 138,120 l 6,0 0,6 -6,0 z" />
		<path style="fill:#ff0066" d="M 144,120 l 6,0 0,6 -6,0 z" />
		<path style="fill:#ff0066" d="M 150,120 l 6,0 0,6 -6,0 z" />
		<path style="fill:#ff0066" d="M 156,120 l 6,0 0,6 -6,0 z" />
		<path style="fill:#22c55e" d="M 168,120 l 6,0 0,6 -6,0 z" />
		<path style="fill:#ff0066" d="M 180,120 l 6,0 0,6 -6,0 z" />
		<path style="fill:#22c55e" d="M 186,120 l 6,0 0,6 -6,0 z" />
		<path style="fill:#ff0066" d="M 204,120 l 6,0 0,6 -6,0 z" />
		<path style="fill:#22c55e" d="M 228,120 l 6,0 0,6 -6,0 z" />
		<path style="fill:#ff0066" d="M 240,120 l 6,0 0,6 -6,0 z" />
		<path style="fill:#22c55e" d="M 246,120 l 6,0 0,6 -6,0 z" />
		<path style="fill:#22c55e" d="M 258,120 l 6,0 0,6 -6,0 z" />
		<path style="fill:#22c55e" d="M 276,120 l 6,0 0,6 -6,0 z" />
		<path style="fill:#ff0066" d="M 288,120 l 6,0 0,6 -6,0 z" />
		<path style="fill:#22c55e" d="M 294,120 l 6,0 0,6 -6,0 z" />
		<path style="fill:#ff0066" d="M 300,120 l 6,0 0,6 -6,0 z" />
		<path style="fill:#22c55e" d="M 306,120 l 6,0 0,6 -6,0 z" />
		<path style="fill:#ff0066" d="M 312,120 l 6,0 0,6 -6,0 z" />
		<path style="fill:#22c55e" d="M 324,120 l 6,0 0,6 -6,0 z" />
		<path style="fill:#ff0066" d="M 330,120 l 6,0 0,6 -6,0 z" />
		<path style="fill:#ff0066" d="M 336,120 l 6,0 0,6 -6,0 z" />
		<path style="fill:#ff0066" d="M 342,120 l 6,0 0,6 -6,0 z" />
		<path style="fill:#ff0066" d="M 348,120 l 6,0 0,6 -6,0 z" />
		<path style="fill:#ff0066" d="M 354,120 l 6,0 0,6 -6,0 z" />
		<path style="fill:#ff0066" d="M 360,120 l 6,0 0,6 -6,0 z" />
		<path style="fill:#ff0066" d="M 120,126 l 6,0 0,6 -6,0 z" />
		<path style="fill:#ff0066" d="M 156,126 l 6,0 0,6 -6,0 z" />
		<path style="fill:#ff0066" d="M 168,126 l 6,0 0,6 -6,0 z" />
		<path style="fill:#ff0066" d="M 174,126 l 6,0 0,6 -6,0 z" />
		<path style="fill:#ff0066" d="M 186,126 l 6,0 0,6 -6,0 z" />
		<path style="fill:#ff0066" d="M 210,126 l 6,0 0,6 -6,0 z" />
		<path style="fill:#ff0066" d="M 222,126 l 6,0 0,6 -6,0 z" />
		<path style="fill:#ff0066" d="M 282,126 l 6,0 0,6 -6,0 z" />
		<path style="fill:#ff0066" d="M 294,126 l 6,0 0,6 -6,0 z" />
		<path style="fill:#22c55e" d="M 324,126 l 6,0 0,6 -6,0 z" />
		<path style="fill:#ff0066" d="M 360,126 l 6,0 0,6 -6,0 z" />
		<path style="fill:#22c55e" d="M 120,132 l 6,0 0,6 -6,0 z" />
		<path style="fill:#ff0066" d="M 132,132 l 6,0 0,6 -6,0 z" />
		<path style="fill:#22c55e" d="M 138,132 l 6,0 0,6 -6,0 z" />
		<path style="fill:#22c55e" d="M 144,132 l 6,0 0,6 -6,0 z" />
		<path style="fill:#22c55e" d="M 156,132 l 6,0 0,6 -6,0 z" />
		<path style="fill:#22c55e" d="M 168,132 l 6,0 0,6 -6,0 z" />
		<path style="fill:#22c55e" d="M 180,132 l 6,0 0,6 -6,0 z" />
		<path style="fill:#ff0066" d="M 198,132 l 6,0 0,6 -6,0 z" />
		<path style="fill:#22c55e" d="M 204,132 l 6,0 0,6 -6,0 z" />
		<path style="fill:#ff0066" d="M 210,132 l 6,0 0,6 -6,0 z" />
		<path style="fill:#22c55e" d="M 222,132 l 6,0 0,6 -6,0 z" />
		<path style="fill:#ff0066" d="M 228,132 l 6,0 0,6 -6,0 z" />
		<path style="fill:#ff0066" d="M 240,132 l 6,0 0,6 -6,0 z" />
		<path style="fill:#ff0066" d="M 246,132 l 6,0 0,6 -6,0 z" />
		<path style="fill:#ff0066" d="M 252,132 l 6,0 0,6 -6,0 z" />
		<path style="fill:#ff0066" d="M 264,132 l 6,0 0,6 -6,0 z" />
		<path style="fill:#ff0066" d="M 276,132 l 6,0 0,6 -6,0 z" />
		<path style="fill:#ff0066" d="M 282,132 l 6,0 0,6 -6,0 z" />
		<path style="fill:#ff0066" d="M 294,132 l 6,0 0,6 -6,0 z" />
		<path style="fill:#ff0066" d="M 300,132 l 6,0 0,6 -6,0 z" />
		<path style="fill:#ff0066" d="M 306,132 l 6,0 0,6 -6,0 z" />
		<path style="fill:#ff0066" d="M 312,132 l 6,0 0,6 -6,0 z" />
		<path style="fill:#ff0066" d="M 324,132 l 6,0 0,6 -6,0 z" />
		<path style="fill:#ff0066" d="M 336,132 l 6,0 0,6 -6,0 z" />
		<path style="fill:#ff0066" d="M 342,132 l 6,0 0,6 -6,0 z" />
		<path style="fill:#ff0066" d="M 348,132 l 6,0 0,6 -6,0 z" />
		<path style="fill:#22c55e" d="M 360,132 l 6,0 0,6 -6,0 z" />
		<path style="fill:#ff0066" d="M 120,138 l 6,0 0,6 -6,0 z" />
		<path style="fill:#22c55e" d="M 132,138 l 6,0 0,6 -6,0 z" />
		<path style="fill:#ff0066" d="M 138,138 l 6,0 0,6 -6,0 z" />
		<path style="fill:#22c55e" d="M 144,138 l 6,0 0,6 -6,0 z" />
		<path style="fill:#ff0066" d="M 156,138 l 6,0 0,6 -6,0 z" />
		<path style="fill:#22c55e" d="M 192,138 l 6,0 0,6 -6,0 z" />
		<path style="fill:#22c55e" d="M 216,138 l 6,0 0,6 -6,0 z" />
		<path style="fill:#22c55e" d="M 228,138 l 6,0 0,6 -6,0 z" />
		<path style="fill:#ff0066" d="M 234,138 l 6,0 0,6 -6,0 z" />
		<path style="fill:#22c55e" d="M 246,138 l 6,0 0,6 -6,0 z" />
		<path style="fill:#ff0066" d="M 264,138 l 6,0 0,6 -6,0 z" />
		<path style="fill:#22c55e" d="M 306,138 l 6,0 0,6 -6,0 z" />
		<path style="fill:#ff0066" d="M 324,138 l 6,0 0,6 -6,0 z" />
		<path style="fill:#22c55e" d="M 336,138 l 6,0 0,6 -6,0 z" />
		<path style="fill:#ff0066" d="M 342,138 l 6,0 0,6 -6,0 z" />
		<path style="fill:#ff0066" d="M 348,138 l 6,0 0,6 -6,0 z" />
		<path style="fill:#ff0066" d="M 360,138 l 6,0 0,6 -6,0 z" />
		<path style="fill:#ff0066" d="M 120,144 l 6,0 0,6 -6,0 z" />
		<path style="fill:#ff0066" d="M 132,144 l 6,0 0,6 -6,0 z" />
		<path style="fill:#ff0066" d="M 138,144 l 6,0 0,6 -6,0 z" />
		<path style="fill:#ff0066" d="M 144,144 l 6,0 0,6 -6,0 z" />
		<path style="fill:#ff0066" d="M 156,144 l 6,0 0,6 -6,0 z" />
		<path style="fill:#ff0066" d="M 180,144 l 6,0 0,6 -6,0 z" />
		<path style="fill:#ff0066" d="M 186,144 l 6,0 0,6 -6,0 z" />
		<path style="fill:#ff0066" d="M 192,144 l 6,0 0,6 -6,0 z" />
		<path style="fill:#ff0066" d="M 198,144 l 6,0 0,6 -6,0 z" />
		<path style="fill:#ff0066" d="M 216,144 l 6,0 0,6 -6,0 z" />
		<path style="fill:#ff0066" d="M 228,144 l 6,0 0,6 -6,0 z" />
		<path style="fill:#ff0066" d="M 252,144 l 6,0 0,6 -6,0 z" />
		<path style="fill:#22c55e" d="M 270,144 l 6,0 0,6 -6,0 z" />
		<path style="fill:#ff0066" d="M 276,144 l 6,0 0,6 -6,0 z" />
		<path style="fill:#22c55e" d="M 288,144 l 6,0 0,6 -6,0 z" />
		<path style="fill:#ff0066" d="M 300,144 l 6,0 0,6 -6,0 z" />
		<path style="fill:#22c55e" d="M 306,144 l 6,0 0,6 -6,0 z" />
		<path style="fill:#22c55e" d="M 312,144 l 6,0 0,6 -6,0 z" />
		<path style="fill:#22c55e" d="M 324,144 l 6,0 0,6 -6,0 z" />
		<path style="fill:#22c55e" d="M 336,144 l 6,0 0,6 -6,0 z" />
		<path style="fill:#22c55e" d="M 342,144 l 6,0 0,6 -6,0 z" />
		<path style="fill:#ff0066" d="M 348,144 l 6,0 0,6 -6,0 z" />
		<path style="fill:#22c55e" d="M 360,144 l 6,0 0,6 -6,0 z" />
		<path style="fill:#ff0066" d="M 120,150 l 6,0 0,6 -6,0 z" />
		<path style="fill:#22c55e" d="M 156,150 l 6,0 0,6 -6,0 z" />
		<path style="fill:#ff0066" d="M 168,150 l 6,0 0,6 -6,0 z" />
		<path style="fill:#ff0066" d="M 186,150 l 6,0 0,6 -6,0 z" />
		<path style="fill:#ff0066" d="M 198,150 l 6,0 0,6 -6,0 z" />
		<path style="fill:#ff0066" d="M 210,150 l 6,0 0,6 -6,0 z" />
		<path style="fill:#ff0066" d="M 216,150 l 6,0 0,6 -6,0 z" />
		<path style="fill:#ff0066" d="M 222,150 l 6,0 0,6 -6,0 z" />
		<path style="fill:#ff0066" d="M 234,150 l 6,0 0,6 -6,0 z" />
		<path style="fill:#ff0066" d="M 240,150 l 6,0 0,6 -6,0 z" />
		<path style="fill:#ff0066" d="M 246,150 l 6,0 0,6 -6,0 z" />
		<path style="fill:#ff0066" d="M 258,150 l 6,0 0,6 -6,0 z" />
		<path style="fill:#ff0066" d="M 264,150 l 6,0 0,6 -6,0 z" />
		<path style="fill:#ff0066" d="M 270,150 l 6,0 0,6 -6,0 z" />
		<path style="fill:#ff0066" d="M 276,150 l 6,0 0,6 -6,0 z" />
		<path style="fill:#ff0066" d="M 282,150 l 6,0 0,6 -6,0 z" />
		<path style="fill:#ff0066" d="M 288,150 l 6,0 0,6 -6,0 z" />
		<path style="fill:#22c55e" d="M 294,150 l 6,0 0,6 -6,0 z" />
		<path style="fill:#ff0066" d="M 300,150 l 6,0 0,6 -6,0 z" />
		<path style="fill:#22c55e" d="M 324,150 l 6,0 0,6 -6,0 z" />
		<path style="fill:#ff0066" d="M 360,150 l 6,0 0,6 -6,0 z" />
		<path style="fill:#22c55e" d="M 120,156 l 6,0 0,6 -6,0 z" />
		<path style="fill:#ff0066" d="M 126,156 l 6,0 0,6 -6,0 z" />
		<path style="fill:#22c55e" d="M 132,156 l 6,0 0,6 -6,0 z" />
		<path style="fill:#22c55e" d="M 138,156 l 6,0 0,6 -6,0 z" />
		<path style="fill:#22c55e" d="M 144,156 l 6,0 0,6 -6,0 z" />
		<path style="fill:#ff0066" d="M 150,156 l 6,0 0,6 -6,0 z" />
		<path style="fill:#22c55e" d="M 156,156 l 6,0 0,6 -6,0 z" />
		<path style="fill:#ff0066" d="M 168,156 l 6,0 0,6 -6,0 z" />
		<path style="fill:#22c55e" d="M 180,156 l 6,0 0,6 -6,0 z" />
		<path style="fill:#ff0066" d="M 192,156 l 6,0 0,6 -6,0 z" />
		<path style="fill:#22c55e" d="M 204,156 l 6,0 0,6 -6,0 z" />
		<path style="fill:#ff0066" d="M 216,156 l 6,0 0,6 -6,0 z" />
		<path style="fill:#ff0066" d="M 228,156 l 6,0 0,6 -6,0 z" />
		<path style="fill:#ff0066" d="M 240,156 l 6,0 0,6 -6,0 z" />
		<path style="fill:#ff0066" d="M 252,156 l 6,0 0,6 -6,0 z" />
		<path style="fill:#ff0066" d="M 264,156 l 6,0 0,6 -6,0 z" />
		<path style="fill:#ff0066" d="M 276,156 l 6,0 0,6 -6,0 z" />
		<path style="fill:#ff0066" d="M 288,156 l 6,0 0,6 -6,0 z" />
		<path style="fill:#ff0066" d="M 300,156 l 6,0 0,6 -6,0 z" />
		<path style="fill:#ff0066" d="M 312,156 l 6,0 0,6 -6,0 z" />
		<path style="fill:#ff0066" d="M 324,156 l 6,0 0,6 -6,0 z" />
		<path style="fill:#ff0066" d="M 330,156 l 6,0 0,6 -6,0 z" />
		<path style="fill:#ff0066" d="M 336,156 l 6,0 0,6 -6,0 z" />
		<path style="fill:#ff0066" d="M 342,156 l 6,0 0,6 -6,0 z" />
		<path style="fill:#ff0066" d="M 348,156 l 6,0 0,6 -6,0 z" />
		<path style="fill:#ff0066" d="M 354,156 l 6,0 0,6 -6,0 z" />
		<path style="fill:#22c55e" d="M 360,156 l 6,0 0,6 -6,0 z" />
		<path style="fill:#ff0066" d="M 168,162 l 6,0 0,6 -6,0 z" />
		<path style="fill:#22c55e" d="M 180,162 l 6,0 0,6 -6,0 z" />
		<path style="fill:#ff0066" d="M 186,162 l 6,0 0,6 -6,0 z" />
		<path style="fill:#22c55e" d="M 198,162 l 6,0 0,6 -6,0 z" />
		<path style="fill:#22c55e" d="M 204,162 l 6,0 0,6 -6,0 z" />
		<path style="fill:#22c55e" d="M 210,162 l 6,0 0,6 -6,0 z" />
		<path style="fill:#22c55e" d="M 216,162 l 6,0 0,6 -6,0 z" />
		<path style="fill:#22c55e" d="M 222,162 l 6,0 0,6 -6,0 z" />
		<path style="fill:#ff0066" d="M 228,162 l 6,0 0,6 -6,0 z" />
		<path style="fill:#22c55e" d="M 234,162 l 6,0 0,6 -6,0 z" />
		<path style="fill:#ff0066" d="M 258,162 l 6,0 0,6 -6,0 z" />
		<path style="fill:#22c55e" d="M 264,162 l 6,0 0,6 -6,0 z" />
		<path style="fill:#ff0066" d="M 270,162 l 6,0 0,6 -6,0 z" />
		<path style="fill:#ff0066" d="M 282,162 l 6,0 0,6 -6,0 z" />
		<path style="fill:#ff0066" d="M 288,162 l 6,0 0,6 -6,0 z" />
		<path style="fill:#ff0066" d="M 306,162 l 6,0 0,6 -6,0 z" />
		<path style="fill:#ff0066" d="M 312,162 l 6,0 0,6 -6,0 z" />
		<path style="fill:#ff0066" d="M 132,168 l 6,0 0,6 -6,0 z" />
		<path style="fill:#ff0066" d="M 138,168 l 6,0 0,6 -6,0 z" />
		<path style="fill:#ff0066" d="M 144,168 l 6,0 0,6 -6,0 z" />
		<path style="fill:#ff0066" d="M 156,168 l 6,0 0,6 -6,0 z" />
		<path style="fill:#ff0066" d="M 168,168 l 6,0 0,6 -6,0 z" />
		<path style="fill:#ff0066" d="M 192,168 l 6,0 0,6 -6,0 z" />
		<path style="fill:#ff0066" d="M 210,168 l 6,0 0,6 -6,0 z" />
		<path style="fill:#ff0066" d="M 216,168 l 6,0 0,6 -6,0 z" />
		<path style="fill:#ff0066" d="M 228,168 l 6,0 0,6 -6,0 z" />
		<path style="fill:#ff0066" d="M 234,168 l 6,0 0,6 -6,0 z" />
		<path style="fill:#22c55e" d="M 240,168 l 6,0 0,6 -6,0 z" />
		<path style="fill:#ff0066" d="M 276,168 l 6,0 0,6 -6,0 z" />
		<path style="fill:#22c55e" d="M 282,168 l 6,0 0,6 -6,0 z" />
		<path style="fill:#ff0066" d="M 288,168 l 6,0 0,6 -6,0 z" />
		<path style="fill:#22c55e" d="M 294,168 l 6,0 0,6 -6,0 z" />
		<path style="fill:#ff0066" d="M 306,168 l 6,0 0,6 -6,0 z" />
		<path style="fill:#22c55e" d="M 312,168 l 6,0 0,6 -6,0 z" />
		<path style="fill:#22c55e" d="M 318,168 l 6,0 0,6 -6,0 z" />
		<path style="fill:#22c55e" d="M 324,168 l 6,0 0,6 -6,0 z" />
		<path style="fill:#ff0066" d="M 330,168 l 6,0 0,6 -6,0 z" />
		<path style="fill:#22c55e" d="M 348,168 l 6,0 0,6 -6,0 z" />
		<path style="fill:#ff0066" d="M 354,168 l 6,0 0,6 -6,0 z" />
		<path style="fill:#22c55e" d="M 360,168 l 6,0 0,6 -6,0 z" />
		<path style="fill:#ff0066" d="M 120,174 l 6,0 0,6 -6,0 z" />
		<path style="fill:#22c55e" d="M 126,174 l 6,0 0,6 -6,0 z" />
		<path style="fill:#ff0066" d="M 132,174 l 6,0 0,6 -6,0 z" />
		<path style="fill:#ff0066" d="M 150,174 l 6,0 0,6 -6,0 z" />
		<path style="fill:#ff0066" d="M 162,174 l 6,0 0,6 -6,0 z" />
		<path style="fill:#ff0066" d="M 186,174 l 6,0 0,6 -6,0 z" />
		<path style="fill:#ff0066" d="M 192,174 l 6,0 0,6 -6,0 z" />
		<path style="fill:#ff0066" d="M 198,174 l 6,0 0,6 -6,0 z" />
		<path style="fill:#ff0066" d="M 210,174 l 6,0 0,6 -6,0 z" />
		<path style="fill:#22c55e" d="M 222,174 l 6,0 0,6 -6,0 z" />
		<path style="fill:#ff0066" d="M 252,174 l 6,0 0,6 -6,0 z" />
		<path style="fill:#22c55e" d="M 264,174 l 6,0 0,6 -6,0 z" />
		<path style="fill:#ff0066" d="M 270,174 l 6,0 0,6 -6,0 z" />
		<path style="fill:#22c55e" d="M 276,174 l 6,0 0,6 -6,0 z" />
		<path style="fill:#ff0066" d="M 294,174 l 6,0 0,6 -6,0 z" />
		<path style="fill:#22c55e" d="M 300,174 l 6,0 0,6 -6,0 z" />
		<path style="fill:#ff0066" d="M 306,174 l 6,0 0,6 -6,0 z" />
		<path style="fill:#22c55e" d="M 312,174 l 6,0 0,6 -6,0 z" />
		<path style="fill:#ff0066" d="M 324,174 l 6,0 0,6 -6,0 z" />
		<path style="fill:#22c55e" d="M 330,174 l 6,0 0,6 -6,0 z" />
		<path style="fill:#ff0066" d="M 336,174 l 6,0 0,6 -6,0 z" />
		<path style="fill:#22c55e" d="M 348,174 l 6,0 0,6 -6,0 z" />
		<path style="fill:#22c55e" d="M 354,174 l 6,0 0,6 -6,0 z" />
		<path style="fill:#22c55e" d="M 360,174 l 6,0 0,6 -6,0 z" />
		<path style="fill:#22c55e" d="M 120,180 l 6,0 0,6 -6,0 z" />
		<path style="fill:#22c55e" d="M 132,180 l 6,0 0,6 -6,0 z" />
		<path style="fill:#ff0066" d="M 138,180 l 6,0 0,6 -6,0 z" />
		<path style="fill:#22c55e" d="M 144,180 l 6,0 0,6 -6,0 z" />
		<path style="fill:#ff0066" d="M 150,180 l 6,0 0,6 -6,0 z" />
		<path style="fill:#22c55e" d="M 156,180 l 6,0 0,6 -6,0 z" />
		<path style="fill:#ff0066" d="M 162,180 l 6,0 0,6 -6,0 z" />
		<path style="fill:#22c55e" d="M 168,180 l 6,0 0,6 -6,0 z" />
		<path style="fill:#ff0066" d="M 174,180 l 6,0 0,6 -6,0 z" />
		<path style="fill:#22c55e" d="M 180,180 l 6,0 0,6 -6,0 z" />
		<path style="fill:#ff0066" d="M 204,180 l 6,0 0,6 -6,0 z" />
		<path style="fill:#22c55e" d="M 210,180 l 6,0 0,6 -6,0 z" />
		<path style="fill:#ff0066" d="M 222,180 l 6,0 0,6 -6,0 z" />
		<path style="fill:#22c55e" d="M 240,180 l 6,0 0,6 -6,0 z" />
		<path style="fill:#ff0066" d="M 276,180 l 6,0 0,6 -6,0 z" />
		<path style="fill:#22c55e" d="M 282,180 l 6,0 0,6 -6,0 z" />
		<path style="fill:#ff0066" d="M 288,180 l 6,0 0,6 -6,0 z" />
		<path style="fill:#22c55e" d="M 300,180 l 6,0 0,6 -6,0 z" />
		<path style="fill:#ff0066" d="M 312,180 l 6,0 0,6 -6,0 z" />
		<path style="fill:#22c55e" d="M 324,180 l 6,0 0,6 -6,0 z" />
		<path style="fill:#ff0066" d="M 120,186 l 6,0 0,6 -6,0 z" />
		<path style="fill:#22c55e" d="M 126,186 l 6,0 0,6 -6,0 z" />
		<path style="fill:#ff0066" d="M 138,186 l 6,0 0,6 -6,0 z" />
		<path style="fill:#22c55e" d="M 144,186 l 6,0 0,6 -6,0 z" />
		<path style="fill:#ff0066" d="M 180,186 l 6,0 0,6 -6,0 z" />
		<path style="fill:#22c55e" d="M 192,186 l 6,0 0,6 -6,0 z" />
		<path style="fill:#ff0066" d="M 198,186 l 6,0 0,6 -6,0 z" />
		<path style="fill:#22c55e" d="M 216,186 l 6,0 0,6 -6,0 z" />
		<path style="fill:#22c55e" d="M 222,186 l 6,0 0,6 -6,0 z" />
		<path style="fill:#22c55e" d="M 240,186 l 6,0 0,6 -6,0 z" />
		<path style="fill:#ff0066" d="M 246,186 l 6,0 0,6 -6,0 z" />
		<path style="fill:#22c55e" d="M 252,186 l 6,0 0,6 -6,0 z" />
		<path style="fill:#ff0066" d="M 258,186 l 6,0 0,6 -6,0 z" />
		<path style="fill:#22c55e" d="M 270,186 l 6,0 0,6 -6,0 z" />
		<path style="fill:#ff0066" d="M 276,186 l 6,0 0,6 -6,0 z" />
		<path style="fill:#22c55e" d="M 306,186 l 6,0 0,6 -6,0 z" />
		<path style="fill:#ff0066" d="M 312,186 l 6,0 0,6 -6,0 z" />
		<path style="fill:#22c55e" d="M 318,186 l 6,0 0,6 -6,0 z" />
		<path style="fill:#ff0066" d="M 324,186 l 6,0 0,6 -6,0 z" />
		<path style="fill:#22c55e" d="M 330,186 l 6,0 0,6 -6,0 z" />
		<path style="fill:#ff0066" d="M 342,186 l 6,0 0,6 -6,0 z" />
		<path style="fill:#22c55e" d="M 126,192 l 6,0 0,6 -6,0 z" />
		<path style="fill:#ff0066" d="M 132,192 l 6,0 0,6 -6,0 z" />
		<path style="fill:#22c55e" d="M 156,192 l 6,0 0,6 -6,0 z" />
		<path style="fill:#ff0066" d="M 162,192 l 6,0 0,6 -6,0 z" />
		<path style="fill:#22c55e" d="M 168,192 l 6,0 0,6 -6,0 z" />
		<path style="fill:#ff0066" d="M 180,192 l 6,0 0,6 -6,0 z" />
		<path style="fill:#22c55e" d="M 192,192 l 6,0 0,6 -6,0 z" />
		<path style="fill:#ff0066" d="M 204,192 l 6,0 0,6 -6,0 z" />
		<path style="fill:#22c55e" d="M 216,192 l 6,0 0,6 -6,0 z" />
		<path style="fill:#ff0066" d="M 222,192 l 6,0 0,6 -6,0 z" />
		<path style="fill:#22c55e" d="M 258,192 l 6,0 0,6 -6,0 z" />
		<path style="fill:#ff0066" d="M 276,192 l 6,0 0,6 -6,0 z" />
		<path style="fill:#ff0066" d="M 282,192 l 6,0 0,6 -6,0 z" />
		<path style="fill:#ff0066" d="M 294,192 l 6,0 0,6 -6,0 z" />
		<path style="fill:#ff0066" d="M 306,192 l 6,0 0,6 -6,0 z" />
		<path style="fill:#ff0066" d="M 312,192 l 6,0 0,6 -6,0 z" />
		<path style="fill:#ff0066" d="M 324,192 l 6,0 0,6 -6,0 z" />
		<path style="fill:#ff0066" d="M 342,192 l 6,0 0,6 -6,0 z" />
		<path style="fill:#ff0066" d="M 348,192 l 6,0 0,6 -6,0 z" />
		<path style="fill:#ff0066" d="M 360,192 l 6,0 0,6 -6,0 z" />
		<path style="fill:#ff0066" d="M 126,198 l 6,0 0,6 -6,0 z" />
		<path style="fill:#ff0066" d="M 144,198 l 6,0 0,6 -6,0 z" />
		<path style="fill:#22c55e" d="M 162,198 l 6,0 0,6 -6,0 z" />
		<path style="fill:#ff0066" d="M 174,198 l 6,0 0,6 -6,0 z" />
		<path style="fill:#22c55e" d="M 180,198 l 6,0 0,6 -6,0 z" />
		<path style="fill:#ff0066" d="M 192,198 l 6,0 0,6 -6,0 z" />
		<path style="fill:#22c55e" d="M 198,198 l 6,0 0,6 -6,0 z" />
		<path style="fill:#ff0066" d="M 204,198 l 6,0 0,6 -6,0 z" />
		<path style="fill:#22c55e" d="M 210,198 l 6,0 0,6 -6,0 z" />
		<path style="fill:#ff0066" d="M 216,198 l 6,0 0,6 -6,0 z" />
		<path style="fill:#22c55e" d="M 222,198 l 6,0 0,6 -6,0 z" />
		<path style="fill:#ff0066" d="M 246,198 l 6,0 0,6 -6,0 z" />
		<path style="fill:#22c55e" d="M 270,198 l 6,0 0,6 -6,0 z" />
		<path style="fill:#ff0066" d="M 282,198 l 6,0 0,6 -6,0 z" />
		<path style="fill:#22c55e" d="M 288,198 l 6,0 0,6 -6,0 z" />
		<path style="fill:#ff0066" d="M 300,198 l 6,0 0,6 -6,0 z" />
		<path style="fill:#22c55e" d="M 318,198 l 6,0 0,6 -6,0 z" />
		<path style="fill:#ff0066" d="M 330,198 l 6,0 0,6 -6,0 z" />
		<path style="fill:#22c55e" d="M 336,198 l 6,0 0,6 -6,0 z" />
		<path style="fill:#ff0066" d="M 342,198 l 6,0 0,6 -6,0 z" />
		<path style="fill:#ff0066" d="M 348,198 l 6,0 0,6 -6,0 z" />
		<path style="fill:#ff0066" d="M 360,198 l 6,0 0,6 -6,0 z" />
		<path style="fill:#ff0066" d="M 126,204 l 6,0 0,6 -6,0 z" />
		<path style="fill:#ff0066" d="M 132,204 l 6,0 0,6 -6,0 z" />
		<path style="fill:#ff0066" d="M 138,204 l 6,0 0,6 -6,0 z" />
		<path style="fill:#ff0066" d="M 156,204 l 6,0 0,6 -6,0 z" />
		<path style="fill:#ff0066" d="M 174,204 l 6,0 0,6 -6,0 z" />
		<path style="fill:#ff0066" d="M 180,204 l 6,0 0,6 -6,0 z" />
		<path style="fill:#ff0066" d="M 186,204 l 6,0 0,6 -6,0 z" />
		<path style="fill:#ff0066" d="M 192,204 l 6,0 0,6 -6,0 z" />
		<path style="fill:#ff0066" d="M 204,204 l 6,0 0,6 -6,0 z" />
		<path style="fill:#ff0066" d="M 210,204 l 6,0 0,6 -6,0 z" />
		<path style="fill:#22c55e" d="M 216,204 l 6,0 0,6 -6,0 z" />
		<path style="fill:#ff0066" d="M 228,204 l 6,0 0,6 -6,0 z" />
		<path style="fill:#22c55e" d="M 234,204 l 6,0 0,6 -6,0 z" />
		<path style="fill:#ff0066" d="M 240,204 l 6,0 0,6 -6,0 z" />
		<path style="fill:#22c55e" d="M 246,204 l 6,0 0,6 -6,0 z" />
		<path style="fill:#ff0066" d="M 252,204 l 6,0 0,6 -6,0 z" />
		<path style="fill:#22c55e" d="M 264,204 l 6,0 0,6 -6,0 z" />
		<path style="fill:#ff0066" d="M 276,204 l 6,0 0,6 -6,0 z" />
		<path style="fill:#22c55e" d="M 312,204 l 6,0 0,6 -6,0 z" />
		<path style="fill:#ff0066" d="M 318,204 l 6,0 0,6 -6,0 z" />
		<path style="fill:#22c55e" d="M 336,204 l 6,0 0,6 -6,0 z" />
		<path style="fill:#ff0066" d="M 348,204 l 6,0 0,6 -6,0 z" />
		<path style="fill:#22c55e" d="M 120,210 l 6,0 0,6 -6,0 z" />
		<path style="fill:#ff0066" d="M 126,210 l 6,0 0,6 -6,0 z" />
		<path style="fill:#22c55e" d="M 144,210 l 6,0 0,6 -6,0 z" />
		<path style="fill:#ff0066" d="M 162,210 l 6,0 0,6 -6,0 z" />
		<path style="fill:#22c55e" d="M 204,210 l 6,0 0,6 -6,0 z" />
		<path style="fill:#ff0066" d="M 210,210 l 6,0 0,6 -6,0 z" />
		<path style="fill:#ff0066" d="M 222,210 l 6,0 0,6 -6,0 z" />
		<path style="fill:#ff0066" d="M 228,210 l 6,0 0,6 -6,0 z" />
		<path style="fill:#ff0066" d="M 234,210 l 6,0 0,6 -6,0 z" />
		<path style="fill:#ff0066" d="M 252,210 l 6,0 0,6 -6,0 z" />
		<path style="fill:#ff0066" d="M 276,210 l 6,0 0,6 -6,0 z" />
		<path style="fill:#ff0066" d="M 288,210 l 6,0 0,6 -6,0 z" />
		<path style="fill:#ff0066" d="M 300,210 l 6,0 0,6 -6,0 z" />
		<path style="fill:#ff0066" d="M 324,210 l 6,0 0,6 -6,0 z" />
		<path style="fill:#ff0066" d="M 330,210 l 6,0 0,6 -6,0 z" />
		<path style="fill:#ff0066" d="M 336,210 l 6,0 0,6 -6,0 z" />
		<path style="fill:#22c55e" d="M 342,210 l 6,0 0,6 -6,0 z" />
		<path style="fill:#ff0066" d="M 360,210 l 6,0 0,6 -6,0 z" />
		<path style="fill:#22c55e" d="M 120,216 l 6,0 0,6 -6,0 z" />
		<path style="fill:#ff0066" d="M 138,216 l 6,0 0,6 -6,0 z" />
		<path style="fill:#22c55e" d="M 144,216 l 6,0 0,6 -6,0 z" />
		<path style="fill:#ff0066" d="M 150,216 l 6,0 0,6 -6,0 z" />
		<path style="fill:#22c55e" d="M 156,216 l 6,0 0,6 -6,0 z" />
		<path style="fill:#ff0066" d="M 162,216 l 6,0 0,6 -6,0 z" />
		<path style="fill:#22c55e" d="M 168,216 l 6,0 0,6 -6,0 z" />
		<path style="fill:#ff0066" d="M 174,216 l 6,0 0,6 -6,0 z" />
		<path style="fill:#22c55e" d="M 204,216 l 6,0 0,6 -6,0 z" />
		<path style="fill:#ff0066" d="M 216,216 l 6,0 0,6 -6,0 z" />
		<path style="fill:#22c55e" d="M 234,216 l 6,0 0,6 -6,0 z" />
		<path style="fill:#ff0066" d="M 240,216 l 6,0 0,6 -6,0 z" />
		<path style="fill:#22c55e" d="M 246,216 l 6,0 0,6 -6,0 z" />
		<path style="fill:#ff0066" d="M 252,216 l 6,0 0,6 -6,0 z" />
		<path style="fill:#22c55e" d="M 264,216 l 6,0 0,6 -6,0 z" />
		<path style="fill:#ff0066" d="M 276,216 l 6,0 0,6 -6,0 z" />
		<path style="fill:#ff0066" d="M 294,216 l 6,0 0,6 -6,0 z" />
		<path style="fill:#ff0066" d="M 318,216 l 6,0 0,6 -6,0 z" />
		<path style="fill:#ff0066" d="M 330,216 l 6,0 0,6 -6,0 z" />
		<path style="fill:#ff0066" d="M 348,216 l 6,0 0,6 -6,0 z" />
		<path style="fill:#ff0066" d="M 354,216 l 6,0 0,6 -6,0 z" />
		<path style="fill:#ff0066" d="M 120,222 l 6,0 0,6 -6,0 z" />
		<path style="fill:#ff0066" d="M 126,222 l 6,0 0,6 -6,0 z" />
		<path style="fill:#ff0066" d="M 132,222 l 6,0 0,6 -6,0 z" />
		<path style="fill:#ff0066" d="M 138,222 l 6,0 0,6 -6,0 z" />
		<path style="fill:#ff0066" d="M 150,222 l 6,0 0,6 -6,0 z" />
		<path style="fill:#ff0066" d="M 168,222 l 6,0 0,6 -6,0 z" />
		<path style="fill:#ff0066" d="M 174,222 l 6,0 0,6 -6,0 z" />
		<path style="fill:#22c55e" d="M 204,222 l 6,0 0,6 -6,0 z" />
		<path style="fill:#ff0066" d="M 210,222 l 6,0 0,6 -6,0 z" />
		<path style="fill:#22c55e" d="M 264,222 l 6,0 0,6 -6,0 z" />
		<path style="fill:#ff0066" d="M 288,222 l 6,0 0,6 -6,0 z" />
		<path style="fill:#22c55e" d="M 300,222 l 6,0 0,6 -6,0 z" />
		<path style="fill:#ff0066" d="M 306,222 l 6,0 0,6 -6,0 z" />
		<path style="fill:#22c55e" d="M 312,222 l 6,0 0,6 -6,0 z" />
		<path style="fill:#ff0066" d="M 324,222 l 6,0 0,6 -6,0 z" />
		<path style="fill:#22c55e" d="M 330,222 l 6,0 0,6 -6,0 z" />
		<path style="fill:#22c55e" d="M 336,222 l 6,0 0,6 -6,0 z" />
		<path style="fill:#22c55e" d="M 342,222 l 6,0 0,6 -6,0 z" />
		<path style="fill:#22c55e" d="M 354,222 l 6,0 0,6 -6,0 z" />
		<path style="fill:#22c55e" d="M 360,222 l 6,0 0,6 -6,0 z" />
		<path style="fill:#22c55e" d="M 126,228 l 6,0 0,6 -6,0 z" />
		<path style="fill:#22c55e" d="M 150,228 l 6,0 0,6 -6,0 z" />
		<path style="fill:#22c55e" d="M 156,228 l 6,0 0,6 -6,0 z" />
		<path style="fill:#22c55e" d="M 162,228 l 6,0 0,6 -6,0 z" />
		<path style="fill:#ff0066" d="M 168,228 l 6,0 0,6 -6,0 z" />
		<path style="fill:#ff0066" d="M 198,228 l 6,0 0,6 -6,0 z" />
		<path style="fill:#ff0066" d="M 240,228 l 6,0 0,6 -6,0 z" />
		<path style="fill:#ff0066" d="M 258,228 l 6,0 0,6 -6,0 z" />
		<path style="fill:#ff0066" d="M 264,228 l 6,0 0,6 -6,0 z" />
		<path style="fill:#ff0066" d="M 270,228 l 6,0 0,6 -6,0 z" />
		<path style="fill:#ff0066" d="M 276,228 l 6,0 0,6 -6,0 z" />
		<path style="fill:#ff0066" d="M 282,228 l 6,0 0,6 -6,0 z" />
		<path style="fill:#ff0066" d="M 300,228 l 6,0 0,6 -6,0 z" />
		<path style="fill:#ff0066" d="M 312,228 l 6,0 0,6 -6,0 z" />
		<path style="fill:#ff0066" d="M 318,228 l 6,0 0,6 -6,0 z" />
		<path style="fill:#22c55e" d="M 324,228 l 6,0 0,6 -6,0 z" />
		<path style="fill:#22c55e" d="M 336,228 l 6,0 0,6 -6,0 z" />
		<path style="fill:#22c55e" d="M 354,228 l 6,0 0,6 -6,0 z" />
		<path style="fill:#22c55e" d="M 126,234 l 6,0 0,6 -6,0 z" />
		<path style="fill:#22c55e" d="M 132,234 l 6,0 0,6 -6,0 z" />
		<path style="fill:#22c55e" d="M 138,234 l 6,0 0,6 -6,0 z" />
		<path style="fill:#22c55e" d="M 144,234 l 6,0 0,6 -6,0 z" />
		<path style="fill:#22c55e" d="M 174,234 l 6,0 0,6 -6,0 z" />
		<path style="fill:#22c55e" d="M 180,234 l 6,0 0,6 -6,0 z" />
		<path style="fill:#22c55e" d="M 192,234 l 6,0 0,6 -6,0 z" />
		<path style="fill:#22c55e" d="M 204,234 l 6,0 0,6 -6,0 z" />
		<path style="fill:#22c55e" d="M 222,234 l 6,0 0,6 -6,0 z" />
		<path style="fill:#22c55e" d="M 228,234 l 6,0 0,6 -6,0 z" />
		<path style="fill:#22c55e" d="M 240,234 l 6,0 0,6 -6,0 z" />
		<path style="fill:#22c55e" d="M 252,234 l 6,0 0,6 -6,0 z" />
		<path style="fill:#22c55e" d="M 276,234 l 6,0 0,6 -6,0 z" />
		<path style="fill:#22c55e" d="M 288,234 l 6,0 0,6 -6,0 z" />
		<path style="fill:#22c55e" d="M 318,234 l 6,0 0,6 -6,0 z" />
		<path style="fill:#ff0066" d="M 336,234 l 6,0 0,6 -6,0 z" />
		<path style="fill:#ff0066" d="M 342,234 l 6,0 0,6 -6,0 z" />
		<path style="fill:#ff0066" d="M 120,240 l 6,0 0,6 -6,0 z" />
		<path style="fill:#ff0066" d="M 144,240 l 6,0 0,6 -6,0 z" />
		<path style="fill:#ff0066" d="M 156,240 l 6,0 0,6 -6,0 z" />
		<path style="fill:#ff0066" d="M 162,240 l 6,0 0,6 -6,0 z" />
		<path style="fill:#ff0066" d="M 186,240 l 6,0 0,6 -6,0 z" />
		<path style="fill:#ff0066" d="M 204,240 l 6,0 0,6 -6,0 z" />
		<path style="fill:#ff0066" d="M 228,240 l 6,0 0,6 -6,0 z" />
		<path style="fill:#ff0066" d="M 252,240 l 6,0 0,6 -6,0 z" />
		<path style="fill:#ff0066" d="M 270,240 l 6,0 0,6 -6,0 z" />
		<path style="fill:#22c55e" d="M 288,240 l 6,0 0,6 -6,0 z" />
		<path style="fill:#22c55e" d="M 300,240 l 6,0 0,6 -6,0 z" />
		<path style="fill:#22c55e" d="M 306,240 l 6,0 0,6 -6,0 z" />
		<path style="fill:#22c55e" d="M 330,240 l 6,0 0,6 -6,0 z" />
		<path style="fill:#22c55e" d="M 336,240 l 6,0 0,6 -6,0 z" />
		<path style="fill:#22c55e" d="M 348,240 l 6,0 0,6 -6,0 z" />
		<path style="fill:#22c55e" d="M 354,240 l 6,0 0,6 -6,0 z" />
		<path style="fill:#22c55e" d="M 360,240 l 6,0 0,6 -6,0 z" />
		<path style="fill:#22c55e" d="M 120,246 l 6,0 0,6 -6,0 z" />
		<path style="fill:#22c55e" d="M 132,246 l 6,0 0,6 -6,0 z" />
		<path style="fill:#22c55e" d="M 150,246 l 6,0 0,6 -6,0 z" />
		<path style="fill:#22c55e" d="M 162,246 l 6,0 0,6 -6,0 z" />
		<path style="fill:#22c55e" d="M 168,246 l 6,0 0,6 -6,0 z" />
		<path style="fill:#22c55e" d="M 186,246 l 6,0 0,6 -6,0 z" />
		<path style="fill:#22c55e" d="M 198,246 l 6,0 0,6 -6,0 z" />
		<path style="fill:#22c55e" d="M 204,246 l 6,0 0,6 -6,0 z" />
		<path style="fill:#22c55e" d="M 222,246 l 6,0 0,6 -6,0 z" />
		<path style="fill:#22c55e" d="M 228,246 l 6,0 0,6 -6,0 z" />
		<path style="fill:#ff0066" d="M 240,246 l 6,0 0,6 -6,0 z" />
		<path style="fill:#ff0066" d="M 252,246 l 6,0 0,6 -6,0 z" />
		<path style="fill:#ff0066" d="M 258,246 l 6,0 0,6 -6,0 z" />
		<path style="fill:#ff0066" d="M 264,246 l 6,0 0,6 -6,0 z" />
		<path style="fill:#ff0066" d="M 270,246 l 6,0 0,6 -6,0 z" />
		<path style="fill:#ff0066" d="M 288,246 l 6,0 0,6 -6,0 z" />
		<path style="fill:#ff0066" d="M 294,246 l 6,0 0,6 -6,0 z" />
		<path style="fill:#ff0066" d="M 306,246 l 6,0 0,6 -6,0 z" />
		<path style="fill:#ff0066" d="M 324,246 l 6,0 0,6 -6,0 z" />
		<path style="fill:#ff0066" d="M 336,246 l 6,0 0,6 -6,0 z" />
		<path style="fill:#ff0066" d="M 342,246 l 6,0 0,6 -6,0 z" />
		<path style="fill:#22c55e" d="M 348,246 l 6,0 0,6 -6,0 z" />
		<path style="fill:#22c55e" d="M 354,246 l 6,0 0,6 -6,0 z" />
		<path style="fill:#22c55e" d="M 360,246 l 6,0 0,6 -6,0 z" />
		<path style="fill:#22c55e" d="M 126,252 l 6,0 0,6 -6,0 z" />
		<path style="fill:#22c55e" d="M 132,252 l 6,0 0,6 -6,0 z" />
		<path style="fill:#22c55e" d="M 156,252 l 6,0 0,6 -6,0 z" />
		<path style="fill:#22c55e" d="M 162,252 l 6,0 0,6 -6,0 z" />
		<path style="fill:#22c55e" d="M 180,252 l 6,0 0,6 -6,0 z" />
		<path style="fill:#22c55e" d="M 186,252 l 6,0 0,6 -6,0 z" />
		<path style="fill:#ff0066" d="M 192,252 l 6,0 0,6 -6,0 z" />
		<path style="fill:#22c55e" d="M 198,252 l 6,0 0,6 -6,0 z" />
		<path style="fill:#ff0066" d="M 204,252 l 6,0 0,6 -6,0 z" />
		<path style="fill:#22c55e" d="M 216,252 l 6,0 0,6 -6,0 z" />
		<path style="fill:#ff0066" d="M 228,252 l 6,0 0,6 -6,0 z" />
		<path style="fill:#22c55e" d="M 234,252 l 6,0 0,6 -6,0 z" />
		<path style="fill:#ff0066" d="M 252,252 l 6,0 0,6 -6,0 z" />
		<path style="fill:#22c55e" d="M 270,252 l 6,0 0,6 -6,0 z" />
		<path style="fill:#ff0066" d="M 276,252 l 6,0 0,6 -6,0 z" />
		<path style="fill:#ff0066" d="M 282,252 l 6,0 0,6 -6,0 z" />
		<path style="fill:#ff0066" d="M 288,252 l 6,0 0,6 -6,0 z" />
		<path style="fill:#ff0066" d="M 300,252 l 6,0 0,6 -6,0 z" />
		<path style="fill:#ff0066" d="M 318,252 l 6,0 0,6 -6,0 z" />
		<path style="fill:#ff0066" d="M 330,252 l 6,0 0,6 -6,0 z" />
		<path style="fill:#ff0066" d="M 336,252 l 6,0 0,6 -6,0 z" />
		<path style="fill:#ff0066" d="M 120,258 l 6,0 0,6 -6,0 z" />
		<path style="fill:#ff0066" d="M 126,258 l 6,0 0,6 -6,0 z" />
		<path style="fill:#ff0066" d="M 138,258 l 6,0 0,6 -6,0 z" />
		<path style="fill:#ff0066" d="M 162,258 l 6,0 0,6 -6,0 z" />
		<path style="fill:#ff0066" d="M 174,258 l 6,0 0,6 -6,0 z" />
		<path style="fill:#ff0066" d="M 180,258 l 6,0 0,6 -6,0 z" />
		<path style="fill:#22c55e" d="M 186,258 l 6,0 0,6 -6,0 z" />
		<path style="fill:#ff0066" d="M 204,258 l 6,0 0,6 -6,0 z" />
		<path style="fill:#22c55e" d="M 210,258 l 6,0 0,6 -6,0 z" />
		<path style="fill:#ff0066" d="M 234,258 l 6,0 0,6 -6,0 z" />
		<path style="fill:#22c55e" d="M 240,258 l 6,0 0,6 -6,0 z" />
		<path style="fill:#ff0066" d="M 246,258 l 6,0 0,6 -6,0 z" />
		<path style="fill:#22c55e" d="M 252,258 l 6,0 0,6 -6,0 z" />
		<path style="fill:#ff0066" d="M 258,258 l 6,0 0,6 -6,0 z" />
		<path style="fill:#22c55e" d="M 264,258 l 6,0 0,6 -6,0 z" />
		<path style="fill:#ff0066" d="M 270,258 l 6,0 0,6 -6,0 z" />
		<path style="fill:#22c55e" d="M 276,258 l 6,0 0,6 -6,0 z" />
		<path style="fill:#ff0066" d="M 282,258 l 6,0 0,6 -6,0 z" />
		<path style="fill:#22c55e" d="M 300,258 l 6,0 0,6 -6,0 z" />
		<path style="fill:#ff0066" d="M 306,258 l 6,0 0,6 -6,0 z" />
		<path style="fill:#22c55e" d="M 324,258 l 6,0 0,6 -6,0 z" />
		<path style="fill:#ff0066" d="M 336,258 l 6,0 0,6 -6,0 z" />
		<path style="fill:#22c55e" d="M 354,258 l 6,0 0,6 -6,0 z" />
		<path style="fill:#ff0066" d="M 360,258 l 6,0 0,6 -6,0 z" />
		<path style="fill:#ff0066" d="M 138,264 l 6,0 0,6 -6,0 z" />
		<path style="fill:#ff0066" d="M 150,264 l 6,0 0,6 -6,0 z" />
		<path style="fill:#ff0066" d="M 156,264 l 6,0 0,6 -6,0 z" />
		<path style="fill:#ff0066" d="M 162,264 l 6,0 0,6 -6,0 z" />
		<path style="fill:#ff0066" d="M 174,264 l 6,0 0,6 -6,0 z" />
		<path style="fill:#ff0066" d="M 204,264 l 6,0 0,6 -6,0 z" />
		<path style="fill:#ff0066" d="M 210,264 l 6,0 0,6 -6,0 z" />
		<path style="fill:#ff0066" d="M 216,264 l 6,0 0,6 -6,0 z" />
		<path style="fill:#ff0066" d="M 234,264 l 6,0 0,6 -6,0 z" />
		<path style="fill:#ff0066" d="M 240,264 l 6,0 0,6 -6,0 z" />
		<path style="fill:#22c55e" d="M 252,264 l 6,0 0,6 -6,0 z" />
		<path style="fill:#ff0066" d="M 264,264 l 6,0 0,6 -6,0 z" />
		<path style="fill:#22c55e" d="M 282,264 l 6,0 0,6 -6,0 z" />
		<path style="fill:#ff0066" d="M 288,264 l 6,0 0,6 -6,0 z" />
		<path style="fill:#22c55e" d="M 294,264 l 6,0 0,6 -6,0 z" />
		<path style="fill:#ff0066" d="M 318,264 l 6,0 0,6 -6,0 z" />
		<path style="fill:#22c55e" d="M 360,264 l 6,0 0,6 -6,0 z" />
		<path style="fill:#ff0066" d="M 120,270 l 6,0 0,6 -6,0 z" />
		<path style="fill:#22c55e" d="M 138,270 l 6,0 0,6 -6,0 z" />
		<path style="fill:#ff0066" d="M 144,270 l 6,0 0,6 -6,0 z" />
		<path style="fill:#22c55e" d="M 162,270 l 6,0 0,6 -6,0 z" />
		<path style="fill:#ff0066" d="M 174,270 l 6,0 0,6 -6,0 z" />
		<path style="fill:#22c55e" d="M 204,270 l 6,0 0,6 -6,0 z" />
		<path style="fill:#ff0066" d="M 234,270 l 6,0 0,6 -6,0 z" />
		<path style="fill:#22c55e" d="M 240,270 l 6,0 0,6 -6,0 z" />
		<path style="fill:#ff0066" d="M 246,270 l 6,0 0,6 -6,0 z" />
		<path style="fill:#22c55e" d="M 258,270 l 6,0 0,6 -6,0 z" />
		<path style="fill:#ff0066" d="M 270,270 l 6,0 0,6 -6,0 z" />
		<path style="fill:#ff0066" d="M 276,270 l 6,0 0,6 -6,0 z" />
		<path style="fill:#ff0066" d="M 288,270 l 6,0 0,6 -6,0 z" />
		<path style="fill:#ff0066" d="M 294,270 l 6,0 0,6 -6,0 z" />
		<path style="fill:#ff0066" d="M 300,270 l 6,0 0,6 -6,0 z" />
		<path style="fill:#ff0066" d="M 306,270 l 6,0 0,6 -6,0 z" />
		<path style="fill:#ff0066" d="M 318,270 l 6,0 0,6 -6,0 z" />
		<path style="fill:#ff0066" d="M 324,270 l 6,0 0,6 -6,0 z" />
		<path style="fill:#ff0066" d="M 330,270 l 6,0 0,6 -6,0 z" />
		<path style="fill:#ff0066" d="M 336,270 l 6,0 0,6 -6,0 z" />
		<path style="fill:#ff0066" d="M 342,270 l 6,0 0,6 -6,0 z" />
		<path style="fill:#ff0066" d="M 354,270 l 6,0 0,6 -6,0 z" />
		<path style="fill:#ff0066" d="M 360,270 l 6,0 0,6 -6,0 z" />
		<path style="fill:#22c55e" d="M 120,276 l 6,0 0,6 -6,0 z" />
		<path style="fill:#ff0066" d="M 132,276 l 6,0 0,6 -6,0 z" />
		<path style="fill:#22c55e" d="M 138,276 l 6,0 0,6 -6,0 z" />
		<path style="fill:#ff0066" d="M 150,276 l 6,0 0,6 -6,0 z" />
		<path style="fill:#22c55e" d="M 156,276 l 6,0 0,6 -6,0 z" />
		<path style="fill:#ff0066" d="M 162,276 l 6,0 0,6 -6,0 z" />
		<path style="fill:#22c55e" d="M 180,276 l 6,0 0,6 -6,0 z" />
		<path style="fill:#ff0066" d="M 204,276 l 6,0 0,6 -6,0 z" />
		<path style="fill:#22c55e" d="M 210,276 l 6,0 0,6 -6,0 z" />
		<path style="fill:#ff0066" d="M 228,276 l 6,0 0,6 -6,0 z" />
		<path style="fill:#22c55e" d="M 246,276 l 6,0 0,6 -6,0 z" />
		<path style="fill:#ff0066" d="M 252,276 l 6,0 0,6 -6,0 z" />
		<path style="fill:#22c55e" d="M 258,276 l 6,0 0,6 -6,0 z" />
		<path style="fill:#ff0066" d="M 264,276 l 6,0 0,6 -6,0 z" />
		<path style="fill:#22c55e" d="M 282,276 l 6,0 0,6 -6,0 z" />
		<path style="fill:#ff0066" d="M 288,276 l 6,0 0,6 -6,0 z" />
		<path style="fill:#22c55e" d="M 294,276 l 6,0 0,6 -6,0 z" />
		<path style="fill:#ff0066" d="M 312,276 l 6,0 0,6 -6,0 z" />
		<path style="fill:#ff0066" d="M 318,276 l 6,0 0,6 -6,0 z" />
		<path style="fill:#ff0066" d="M 330,276 l 6,0 0,6 -6,0 z" />
		<path style="fill:#ff0066" d="M 120,282 l 6,0 0,6 -6,0 z" />
		<path style="fill:#ff0066" d="M 132,282 l 6,0 0,6 -6,0 z" />
		<path style="fill:#ff0066" d="M 138,282 l 6,0 0,6 -6,0 z" />
		<path style="fill:#ff0066" d="M 150,282 l 6,0 0,6 -6,0 z" />
		<path style="fill:#ff0066" d="M 162,282 l 6,0 0,6 -6,0 z" />
		<path style="fill:#ff0066" d="M 168,282 l 6,0 0,6 -6,0 z" />
		<path style="fill:#ff0066" d="M 180,282 l 6,0 0,6 -6,0 z" />
		<path style="fill:#ff0066" d="M 186,282 l 6,0 0,6 -6,0 z" />
		<path style="fill:#22c55e" d="M 192,282 l 6,0 0,6 -6,0 z" />
		<path style="fill:#ff0066" d="M 204,282 l 6,0 0,6 -6,0 z" />
		<path style="fill:#22c55e" d="M 210,282 l 6,0 0,6 -6,0 z" />
		<path style="fill:#ff0066" d="M 222,282 l 6,0 0,6 -6,0 z" />
		<path style="fill:#22c55e" d="M 246,282 l 6,0 0,6 -6,0 z" />
		<path style="fill:#ff0066" d="M 252,282 l 6,0 0,6 -6,0 z" />
		<path style="fill:#22c55e" d="M 264,282 l 6,0 0,6 -6,0 z" />
		<path style="fill:#ff0066" d="M 276,282 l 6,0 0,6 -6,0 z" />
		<path style="fill:#22c55e" d="M 282,282 l 6,0 0,6 -6,0 z" />
		<path style="fill:#ff0066" d="M 288,282 l 6,0 0,6 -6,0 z" />
		<path style="fill:#22c55e" d="M 306,282 l 6,0 0,6 -6,0 z" />
		<path style="fill:#ff0066" d="M 312,282 l 6,0 0,6 -6,0 z" />
		<path style="fill:#22c55e" d="M 330,282 l 6,0 0,6 -6,0 z" />
		<path style="fill:#ff0066" d="M 342,282 l 6,0 0,6 -6,0 z" />
		<path style="fill:#22c55e" d="M 354,282 l 6,0 0,6 -6,0 z" />
		<path style="fill:#ff0066" d="M 138,288 l 6,0 0,6 -6,0 z" />
		<path style="fill:#22c55e" d="M 156,288 l 6,0 0,6 -6,0 z" />
		<path style="fill:#ff0066" d="M 168,288 l 6,0 0,6 -6,0 z" />
		<path style="fill:#22c55e" d="M 174,288 l 6,0 0,6 -6,0 z" />
		<path style="fill:#ff0066" d="M 210,288 l 6,0 0,6 -6,0 z" />
		<path style="fill:#22c55e" d="M 234,288 l 6,0 0,6 -6,0 z" />
		<path style="fill:#ff0066" d="M 246,288 l 6,0 0,6 -6,0 z" />
		<path style="fill:#22c55e" d="M 258,288 l 6,0 0,6 -6,0 z" />
		<path style="fill:#22c55e" d="M 270,288 l 6,0 0,6 -6,0 z" />
		<path style="fill:#22c55e" d="M 276,288 l 6,0 0,6 -6,0 z" />
		<path style="fill:#ff0066" d="M 288,288 l 6,0 0,6 -6,0 z" />
		<path style="fill:#22c55e" d="M 294,288 l 6,0 0,6 -6,0 z" />
		<path style="fill:#ff0066" d="M 300,288 l 6,0 0,6 -6,0 z" />
		<path style="fill:#22c55e" d="M 306,288 l 6,0 0,6 -6,0 z" />
		<path style="fill:#ff0066" d="M 318,288 l 6,0 0,6 -6,0 z" />
		<path style="fill:#22c55e" d="M 330,288 l 6,0 0,6 -6,0 z" />
		<path style="fill:#ff0066" d="M 342,288 l 6,0 0,6 -6,0 z" />
		<path style="fill:#22c55e" d="M 348,288 l 6,0 0,6 -6,0 z" />
		<path style="fill:#ff0066" d="M 120,294 l 6,0 0,6 -6,0 z" />
		<path style="fill:#22c55e" d="M 132,294 l 6,0 0,6 -6,0 z" />
		<path style="fill:#ff0066" d="M 144,294 l 6,0 0,6 -6,0 z" />
		<path style="fill:#22c55e" d="M 168,294 l 6,0 0,6 -6,0 z" />
		<path style="fill:#ff0066" d="M 186,294 l 6,0 0,6 -6,0 z" />
		<path style="fill:#22c55e" d="M 198,294 l 6,0 0,6 -6,0 z" />
		<path style="fill:#ff0066" d="M 204,294 l 6,0 0,6 -6,0 z" />
		<path style="fill:#22c55e" d="M 216,294 l 6,0 0,6 -6,0 z" />
		<path style="fill:#ff0066" d="M 222,294 l 6,0 0,6 -6,0 z" />
		<path style="fill:#22c55e" d="M 228,294 l 6,0 0,6 -6,0 z" />
		<path style="fill:#ff0066" d="M 246,294 l 6,0 0,6 -6,0 z" />
		<path style="fill:#22c55e" d="M 252,294 l 6,0 0,6 -6,0 z" />
		<path style="fill:#ff0066" d="M 258,294 l 6,0 0,6 -6,0 z" />
		<path style="fill:#22c55e" d="M 282,294 l 6,0 0,6 -6,0 z" />
		<path style="fill:#ff0066" d="M 300,294 l 6,0 0,6 -6,0 z" />
		<path style="fill:#22c55e" d="M 312,294 l 6,0 0,6 -6,0 z" />
		<path style="fill:#ff0066" d="M 330,294 l 6,0 0,6 -6,0 z" />
		<path style="fill:#22c55e" d="M 336,294 l 6,0 0,6 -6,0 z" />
		<path style="fill:#22c55e" d="M 342,294 l 6,0 0,6 -6,0 z" />
		<path style="fill:#22c55e" d="M 360,294 l 6,0 0,6 -6,0 z" />
		<path style="fill:#22c55e" d="M 120,300 l 6,0 0,6 -6,0 z" />
		<path style="fill:#22c55e" d="M 156,300 l 6,0 0,6 -6,0 z" />
		<path style="fill:#ff0066" d="M 162,300 l 6,0 0,6 -6,0 z" />
		<path style="fill:#22c55e" d="M 174,300 l 6,0 0,6 -6,0 z" />
		<path style="fill:#ff0066" d="M 192,300 l 6,0 0,6 -6,0 z" />
		<path style="fill:#22c55e" d="M 198,300 l 6,0 0,6 -6,0 z" />
		<path style="fill:#ff0066" d="M 204,300 l 6,0 0,6 -6,0 z" />
		<path style="fill:#22c55e" d="M 216,300 l 6,0 0,6 -6,0 z" />
		<path style="fill:#ff0066" d="M 240,300 l 6,0 0,6 -6,0 z" />
		<path style="fill:#22c55e" d="M 252,300 l 6,0 0,6 -6,0 z" />
		<path style="fill:#ff0066" d="M 258,300 l 6,0 0,6 -6,0 z" />
		<path style="fill:#22c55e" d="M 264,300 l 6,0 0,6 -6,0 z" />
		<path style="fill:#ff0066" d="M 276,300 l 6,0 0,6 -6,0 z" />
		<path style="fill:#22c55e" d="M 282,300 l 6,0 0,6 -6,0 z" />
		<path style="fill:#ff0066" d="M 288,300 l 6,0 0,6 -6,0 z" />
		<path style="fill:#ff0066" d="M 306,300 l 6,0 0,6 -6,0 z" />
		<path style="fill:#ff0066" d="M 318,300 l 6,0 0,6 -6,0 z" />
		<path style="fill:#ff0066" d="M 324,300 l 6,0 0,6 -6,0 z" />
		<path style="fill:#ff0066" d="M 330,300 l 6,0 0,6 -6,0 z" />
		<path style="fill:#ff0066" d="M 336,300 l 6,0 0,6 -6,0 z" />
		<path style="fill:#ff0066" d="M 342,300 l 6,0 0,6 -6,0 z" />
		<path style="fill:#22c55e" d="M 348,300 l 6,0 0,6 -6,0 z" />
		<path style="fill:#ff0066" d="M 120,306 l 6,0 0,6 -6,0 z" />
		<path style="fill:#22c55e" d="M 132,306 l 6,0 0,6 -6,0 z" />
		<path style="fill:#ff0066" d="M 138,306 l 6,0 0,6 -6,0 z" />
		<path style="fill:#22c55e" d="M 144,306 l 6,0 0,6 -6,0 z" />
		<path style="fill:#ff0066" d="M 150,306 l 6,0 0,6 -6,0 z" />
		<path style="fill:#22c55e" d="M 168,306 l 6,0 0,6 -6,0 z" />
		<path style="fill:#22c55e" d="M 174,306 l 6,0 0,6 -6,0 z" />
		<path style="fill:#22c55e" d="M 180,306 l 6,0 0,6 -6,0 z" />
		<path style="fill:#ff0066" d="M 186,306 l 6,0 0,6 -6,0 z" />
		<path style="fill:#22c55e" d="M 216,306 l 6,0 0,6 -6,0 z" />
		<path style="fill:#ff0066" d="M 222,306 l 6,0 0,6 -6,0 z" />
		<path style="fill:#22c55e" d="M 240,306 l 6,0 0,6 -6,0 z" />
		<path style="fill:#ff0066" d="M 246,306 l 6,0 0,6 -6,0 z" />
		<path style="fill:#22c55e" d="M 258,306 l 6,0 0,6 -6,0 z" />
		<path style="fill:#ff0066" d="M 264,306 l 6,0 0,6 -6,0 z" />
		<path style="fill:#22c55e" d="M 282,306 l 6,0 0,6 -6,0 z" />
		<path style="fill:#ff0066" d="M 306,306 l 6,0 0,6 -6,0 z" />
		<path style="fill:#22c55e" d="M 312,306 l 6,0 0,6 -6,0 z" />
		<path style="fill:#ff0066" d="M 318,306 l 6,0 0,6 -6,0 z" />
		<path style="fill:#22c55e" d="M 324,306 l 6,0 0,6 -6,0 z" />
		<path style="fill:#ff0066" d="M 342,306 l 6,0 0,6 -6,0 z" />
		<path style="fill:#ff0066" d="M 120,312 l 6,0 0,6 -6,0 z" />
		<path style="fill:#ff0066" d="M 138,312 l 6,0 0,6 -6,0 z" />
		<path style="fill:#ff0066" d="M 144,312 l 6,0 0,6 -6,0 z" />
		<path style="fill:#ff0066" d="M 156,312 l 6,0 0,6 -6,0 z" />
		<path style="fill:#ff0066" d="M 186,312 l 6,0 0,6 -6,0 z" />
		<path style="fill:#ff0066" d="M 198,312 l 6,0 0,6 -6,0 z" />
		<path style="fill:#ff0066" d="M 204,312 l 6,0 0,6 -6,0 z" />
		<path style="fill:#ff0066" d="M 216,312 l 6,0 0,6 -6,0 z" />
		<path style="fill:#22c55e" d="M 222,312 l 6,0 0,6 -6,0 z" />
		<path style="fill:#ff0066" d="M 234,312 l 6,0 0,6 -6,0 z" />
		<path style="fill:#22c55e" d="M 240,312 l 6,0 0,6 -6,0 z" />
		<path style="fill:#ff0066" d="M 246,312 l 6,0 0,6 -6,0 z" />
		<path style="fill:#22c55e" d="M 264,312 l 6,0 0,6 -6,0 z" />
		<path style="fill:#22c55e" d="M 270,312 l 6,0 0,6 -6,0 z" />
		<path style="fill:#22c55e" d="M 282,312 l 6,0 0,6 -6,0 z" />
		<path style="fill:#22c55e" d="M 294,312 l 6,0 0,6 -6,0 z" />
		<path style="fill:#22c55e" d="M 306,312 l 6,0 0,6 -6,0 z" />
		<path style="fill:#ff0066" d="M 312,312 l 6,0 0,6 -6,0 z" />
		<path style="fill:#22c55e" d="M 318,312 l 6,0 0,6 -6,0 z" />
		<path style="fill:#ff0066" d="M 324,312 l 6,0 0,6 -6,0 z" />
		<path style="fill:#22c55e" d="M 330,312 l 6,0 0,6 -6,0 z" />
		<path style="fill:#ff0066" d="M 336,312 l 6,0 0,6 -6,0 z" />
		<path style="fill:#22c55e" d="M 348,312 l 6,0 0,6 -6,0 z" />
		<path style="fill:#ff0066" d="M 168,318 l 6,0 0,6 -6,0 z" />
		<path style="fill:#22c55e" d="M 174,318 l 6,0 0,6 -6,0 z" />
		<path style="fill:#ff0066" d="M 192,318 l 6,0 0,6 -6,0 z" />
		<path style="fill:#22c55e" d="M 204,318 l 6,0 0,6 -6,0 z" />
		<path style="fill:#ff0066" d="M 210,318 l 6,0 0,6 -6,0 z" />
		<path style="fill:#22c55e" d="M 216,318 l 6,0 0,6 -6,0 z" />
		<path style="fill:#ff0066" d="M 222,318 l 6,0 0,6 -6,0 z" />
		<path style="fill:#ff0066" d="M 234,318 l 6,0 0,6 -6,0 z" />
		<path style="fill:#ff0066" d="M 246,318 l 6,0 0,6 -6,0 z" />
		<path style="fill:#ff0066" d="M 258,318 l 6,0 0,6 -6,0 z" />
		<path style="fill:#ff0066" d="M 264,318 l 6,0 0,6 -6,0 z" />
		<path style="fill:#ff0066" d="M 276,318 l 6,0 0,6 -6,0 z" />
		<path style="fill:#ff0066" d="M 294,318 l 6,0 0,6 -6,0 z" />
		<path style="fill:#22c55e" d="M 312,318 l 6,0 0,6 -6,0 z" />
		<path style="fill:#ff0066" d="M 336,318 l 6,0 0,6 -6,0 z" />
		<path style="fill:#22c55e" d="M 348,318 l 6,0 0,6 -6,0 z" />
		<path style="fill:#ff0066" d="M 360,318 l 6,0 0,6 -6,0 z" />
		<path style="fill:#22c55e" d="M 120,324 l 6,0 0,6 -6,0 z" />
		<path style="fill:#ff0066" d="M 126,324 l 6,0 0,6 -6,0 z" />
		<path style="fill:#22c55e" d="M 132,324 l 6,0 0,6 -6,0 z" />
		<path style="fill:#22c55e" d="M 138,324 l 6,0 0,6 -6,0 z" />
		<path style="fill:#22c55e" d="M 144,324 l 6,0 0,6 -6,0 z" />
		<path style="fill:#ff0066" d="M 150,324 l 6,0 0,6 -6,0 z" />
		<path style="fill:#22c55e" d="M 156,324 l 6,0 0,6 -6,0 z" />
		<path style="fill:#ff0066" d="M 174,324 l 6,0 0,6 -6,0 z" />
		<path style="fill:#22c55e" d="M 210,324 l 6,0 0,6 -6,0 z" />
		<path style="fill:#ff0066" d="M 216,324 l 6,0 0,6 -6,0 z" />
		<path style="fill:#22c55e" d="M 222,324 l 6,0 0,6 -6,0 z" />
		<path style="fill:#ff0066" d="M 228,324 l 6,0 0,6 -6,0 z" />
		<path style="fill:#22c55e" d="M 258,324 l 6,0 0,6 -6,0 z" />
		<path style="fill:#ff0066" d="M 276,324 l 6,0 0,6 -6,0 z" />
		<path style="fill:#22c55e" d="M 282,324 l 6,0 0,6 -6,0 z" />
		<path style="fill:#ff0066" d="M 294,324 l 6,0 0,6 -6,0 z" />
		<path style="fill:#22c55e" d="M 306,324 l 6,0 0,6 -6,0 z" />
		<path style="fill:#ff0066" d="M 312,324 l 6,0 0,6 -6,0 z" />
		<path style="fill:#ff0066" d="M 324,324 l 6,0 0,6 -6,0 z" />
		<path style="fill:#ff0066" d="M 336,324 l 6,0 0,6 -6,0 z" />
		<path style="fill:#ff0066" d="M 342,324 l 6,0 0,6 -6,0 z" />
		<path style="fill:#ff0066" d="M 354,324 l 6,0 0,6 -6,0 z" />
		<path style="fill:#ff0066" d="M 120,330 l 6,0 0,6 -6,0 z" />
		<path style="fill:#ff0066" d="M 156,330 l 6,0 0,6 -6,0 z" />
		<path style="fill:#ff0066" d="M 174,330 l 6,0 0,6 -6,0 z" />
		<path style="fill:#ff0066" d="M 180,330 l 6,0 0,6 -6,0 z" />
		<path style="fill:#22c55e" d="M 192,330 l 6,0 0,6 -6,0 z" />
		<path style="fill:#ff0066" d="M 198,330 l 6,0 0,6 -6,0 z" />
		<path style="fill:#22c55e" d="M 210,330 l 6,0 0,6 -6,0 z" />
		<path style="fill:#ff0066" d="M 222,330 l 6,0 0,6 -6,0 z" />
		<path style="fill:#22c55e" d="M 234,330 l 6,0 0,6 -6,0 z" />
		<path style="fill:#22c55e" d="M 252,330 l 6,0 0,6 -6,0 z" />
		<path style="fill:#22c55e" d="M 270,330 l 6,0 0,6 -6,0 z" />
		<path style="fill:#22c55e" d="M 282,330 l 6,0 0,6 -6,0 z" />
		<path style="fill:#22c55e" d="M 294,330 l 6,0 0,6 -6,0 z" />
		<path style="fill:#ff0066" d="M 300,330 l 6,0 0,6 -6,0 z" />
		<path style="fill:#22c55e" d="M 306,330 l 6,0 0,6 -6,0 z" />
		<path style="fill:#ff0066" d="M 312,330 l 6,0 0,6 -6,0 z" />
		<path style="fill:#22c55e" d="M 336,330 l 6,0 0,6 -6,0 z" />
		<path style="fill:#ff0066" d="M 342,330 l 6,0 0,6 -6,0 z" />
		<path style="fill:#22c55e" d="M 120,336 l 6,0 0,6 -6,0 z" />
		<path style="fill:#ff0066" d="M 132,336 l 6,0 0,6 -6,0 z" />
		<path style="fill:#22c55e" d="M 138,336 l 6,0 0,6 -6,0 z" />
		<path style="fill:#ff0066" d="M 144,336 l 6,0 0,6 -6,0 z" />
		<path style="fill:#22c55e" d="M 156,336 l 6,0 0,6 -6,0 z" />
		<path style="fill:#ff0066" d="M 168,336 l 6,0 0,6 -6,0 z" />
		<path style="fill:#22c55e" d="M 180,336 l 6,0 0,6 -6,0 z" />
		<path style="fill:#ff0066" d="M 186,336 l 6,0 0,6 -6,0 z" />
		<path style="fill:#ff0066" d="M 192,336 l 6,0 0,6 -6,0 z" />
		<path style="fill:#ff0066" d="M 216,336 l 6,0 0,6 -6,0 z" />
		<path style="fill:#ff0066" d="M 234,336 l 6,0 0,6 -6,0 z" />
		<path style="fill:#ff0066" d="M 264,336 l 6,0 0,6 -6,0 z" />
		<path style="fill:#ff0066" d="M 270,336 l 6,0 0,6 -6,0 z" />
		<path style="fill:#ff0066" d="M 288,336 l 6,0 0,6 -6,0 z" />
		<path style="fill:#22c55e" d="M 312,336 l 6,0 0,6 -6,0 z" />
		<path style="fill:#ff0066" d="M 318,336 l 6,0 0,6 -6,0 z" />
		<path style="fill:#22c55e" d="M 324,336 l 6,0 0,6 -6,0 z" />
		<path style="fill:#ff0066" d="M 330,336 l 6,0 0,6 -6,0 z" />
		<path style="fill:#22c55e" d="M 336,336 l 6,0 0,6 -6,0 z" />
		<path style="fill:#ff0066" d="M 348,336 l 6,0 0,6 -6,0 z" />
		<path style="fill:#22c55e" d="M 354,336 l 6,0 0,6 -6,0 z" />
		<path style="fill:#22c55e" d="M 360,336 l 6,0 0,6 -6,0 z" />
		<path style="fill:#22c55e" d="M 120,342 l 6,0 0,6 -6,0 z" />
		<path style="fill:#ff0066" d="M 132,342 l 6,0 0,6 -6,0 z" />
		<path style="fill:#22c55e" d="M 138,342 l 6,0 0,6 -6,0 z" />
		<path style="fill:#ff0066" d="M 144,342 l 6,0 0,6 -6,0 z" />
		<path style="fill:#22c55e" d="M 156,342 l 6,0 0,6 -6,0 z" />
		<path style="fill:#ff0066" d="M 168,342 l 6,0 0,6 -6,0 z" />
		<path style="fill:#22c55e" d="M 174,342 l 6,0 0,6 -6,0 z" />
		<path style="fill:#ff0066" d="M 192,342 l 6,0 0,6 -6,0 z" />
		<path style="fill:#22c55e" d="M 210,342 l 6,0 0,6 -6,0 z" />
		<path style="fill:#ff0066" d="M 216,342 l 6,0 0,6 -6,0 z" />
		<path style="fill:#22c55e" d="M 234,342 l 6,0 0,6 -6,0 z" />
		<path style="fill:#ff0066" d="M 240,342 l 6,0 0,6 -6,0 z" />
		<path style="fill:#22c55e" d="M 252,342 l 6,0 0,6 -6,0 z" />
		<path style="fill:#ff0066" d="M 258,342 l 6,0 0,6 -6,0 z" />
		<path style="fill:#ff0066" d="M 264,342 l 6,0 0,6 -6,0 z" />
		<path style="fill:#ff0066" d="M 270,342 l 6,0 0,6 -6,0 z" />
		<path style="fill:#ff0066" d="M 282,342 l 6,0 0,6 -6,0 z" />
		<path style="fill:#ff0066" d="M 288,342 l 6,0 0,6 -6,0 z" />
		<path style="fill:#ff0066" d="M 300,342 l 6,0 0,6 -6,0 z" />
		<path style="fill:#ff0066" d="M 306,342 l 6,0 0,6 -6,0 z" />
		<path style="fill:#ff0066" d="M 312,342 l 6,0 0,6 -6,0 z" />
		<path style="fill:#ff0066" d="M 318,342 l 6,0 0,6 -6,0 z" />
		<path style="fill:#22c55e" d="M 330,342 l 6,0 0,6 -6,0 z" />
		<path style="fill:#ff0066" d="M 342,342 l 6,0 0,6 -6,0 z" />
		<path style="fill:#22c55e" d="M 348,342 l 6,0 0,6 -6,0 z" />
		<path style="fill:#ff0066" d="M 354,342 l 6,0 0,6 -6,0 z" />
		<path style="fill:#22c55e" d="M 360,342 l 6,0 0,6 -6,0 z" />
		<path style="fill:#22c55e" d="M 120,348 l 6,0 0,6 -6,0 z" />
		<path style="fill:#22c55e" d="M 132,348 l 6,0 0,6 -6,0 z" />
		<path style="fill:#22c55e" d="M 138,348 l 6,0 0,6 -6,0 z" />
		<path style="fill:#22c55e" d="M 144,348 l 6,0 0,6 -6,0 z" />
		<path style="fill:#ff0066" d="M 156,348 l 6,0 0,6 -6,0 z" />
		<path style="fill:#22c55e" d="M 168,348 l 6,0 0,6 -6,0 z" />
		<path style="fill:#ff0066" d="M 186,348 l 6,0 0,6 -6,0 z" />
		<path style="fill:#22c55e" d="M 204,348 l 6,0 0,6 -6,0 z" />
		<path style="fill:#ff0066" d="M 210,348 l 6,0 0,6 -6,0 z" />
		<path style="fill:#22c55e" d="M 216,348 l 6,0 0,6 -6,0 z" />
		<path style="fill:#ff0066" d="M 240,348 l 6,0 0,6 -6,0 z" />
		<path style="fill:#22c55e" d="M 246,348 l 6,0 0,6 -6,0 z" />
		<path style="fill:#ff0066" d="M 258,348 l 6,0 0,6 -6,0 z" />
		<path style="fill:#22c55e" d="M 270,348 l 6,0 0,6 -6,0 z" />
		<path style="fill:#ff0066" d="M 282,348 l 6,0 0,6 -6,0 z" />
		<path style="fill:#22c55e" d="M 288,348 l 6,0 0,6 -6,0 z" />
		<path style="fill:#ff0066" d="M 306,348 l 6,0 0,6 -6,0 z" />
		<path style="fill:#ff0066" d="M 312,348 l 6,0 0,6 -6,0 z" />
		<path style="fill:#ff0066" d="M 318,348 l 6,0 0,6 -6,0 z" />
		<path style="fill:#ff0066" d="M 324,348 l 6,0 0,6 -6,0 z" />
		<path style="fill:#ff0066" d="M 330,348 l 6,0 0,6 -6,0 z" />
		<path style="fill:#ff0066" d="M 336,348 l 6,0 0,6 -6,0 z" />
		<path style="fill:#ff0066" d="M 348,348 l 6,0 0,6 -6,0 z" />
		<path style="fill:#22c55e" d="M 354,348 l 6,0 0,6 -6,0 z" />
		<path style="fill:#ff0066" d="M 120,354 l 6,0 0,6 -6,0 z" />
		<path style="fill:#22c55e" d="M 156,354 l 6,0 0,6 -6,0 z" />
		<path style="fill:#ff0066" d="M 174,354 l 6,0 0,6 -6,0 z" />
		<path style="fill:#22c55e" d="M 192,354 l 6,0 0,6 -6,0 z" />
		<path style="fill:#ff0066" d="M 216,354 l 6,0 0,6 -6,0 z" />
		<path style="fill:#22c55e" d="M 222,354 l 6,0 0,6 -6,0 z" />
		<path style="fill:#22c55e" d="M 228,354 l 6,0 0,6 -6,0 z" />
		<path style="fill:#22c55e" d="M 234,354 l 6,0 0,6 -6,0 z" />
		<path style="fill:#ff0066" d="M 246,354 l 6,0 0,6 -6,0 z" />
		<path style="fill:#22c55e" d="M 252,354 l 6,0 0,6 -6,0 z" />
		<path style="fill:#ff0066" d="M 264,354 l 6,0 0,6 -6,0 z" />
		<path style="fill:#22c55e" d="M 270,354 l 6,0 0,6 -6,0 z" />
		<path style="fill:#ff0066" d="M 276,354 l 6,0 0,6 -6,0 z" />
		<path style="fill:#22c55e" d="M 288,354 l 6,0 0,6 -6,0 z" />
		<path style="fill:#ff0066" d="M 312,354 l 6,0 0,6 -6,0 z" />
		<path style="fill:#22c55e" d="M 336,354 l 6,0 0,6 -6,0 z" />
		<path style="fill:#ff0066" d="M 342,354 l 6,0 0,6 -6,0 z" />
		<path style="fill:#22c55e" d="M 348,354 l 6,0 0,6 -6,0 z" />
		<path style="fill:#ff0066" d="M 354,354 l 6,0 0,6 -6,0 z" />
		<path style="fill:#22c55e" d="M 120,360 l 6,0 0,6 -6,0 z" />
		<path style="fill:#ff0066" d="M 126,360 l 6,0 0,6 -6,0 z" />
		<path style="fill:#ff0066" d="M 132,360 l 6,0 0,6 -6,0 z" />
		<path style="fill:#ff0066" d="M 138,360 l 6,0 0,6 -6,0 z" />
		<path style="fill:#ff0066" d="M 144,360 l 6,0 0,6 -6,0 z" />
		<path style="fill:#ff0066" d="M 150,360 l 6,0 0,6 -6,0 z" />
		<path style="fill:#ff0066" d="M 156,360 l 6,0 0,6 -6,0 z" />
		<path style="fill:#ff0066" d="M 174,360 l 6,0 0,6 -6,0 z" />
		<path style="fill:#ff0066" d="M 192,360 l 6,0 0,6 -6,0 z" />
		<path style="fill:#ff0066" d="M 198,360 l 6,0 0,6 -6,0 z" />
		<path style="fill:#22c55e" d="M 216,360 l 6,0 0,6 -6,0 z" />
		<path style="fill:#ff0066" d="M 234,360 l 6,0 0,6 -6,0 z" />
		<path style="fill:#22c55e" d="M 246,360 l 6,0 0,6 -6,0 z" />
		<path style="fill:#ff0066" d="M 264,360 l 6,0 0,6 -6,0 z" />
		<path style="fill:#22c55e" d="M 294,360 l 6,0 0,6 -6,0 z" />
		<path style="fill:#22c55e" d="M 306,360 l 6,0 0,6 -6,0 z" />
		<path style="fill:#22c55e" d="M 330,360 l 6,0 0,6 -6,0 z" />
		<path style="fill:#22c55e" d="M 336,360 l 6,0 0,6 -6,0 z" />
	</g>
</svg>
